<svg id="Layer_1" data-name="Layer 1" xmlns="http://www.w3.org/2000/svg" xmlns:xlink="http://www.w3.org/1999/xlink" viewBox="270.114 309.114 1631.2 1279.382"><defs><style>.cls-1,.cls-5{fill:none;}.cls-2{fill:#44564c;}.cls-3,.cls-6{fill:#fbf4eb;}.cls-3,.cls-5,.cls-6{stroke:#fbf4eb;stroke-miterlimit:10;}.cls-4{clip-path:url(#clip-path);}.cls-5{stroke-width:3px;}.cls-6{stroke-width:2px;}</style><clipPath id="clip-path" transform="translate(329.114 331.597)"><rect class="cls-1" x="477.79" y="99.115" width="556.54" height="544.651" rx="46.809" transform="translate(-41.204 643.407) rotate(-45)"/></clipPath></defs><path class="cls-2" d="M16.426,0h2148.68a0,0,0,0,1,0,0V2142.553a16.426,16.426,0,0,1-16.426,16.426H16.426A16.426,16.426,0,0,1,0,2142.553V16.426A16.426,16.426,0,0,1,16.426,0Z"/><path class="cls-3" d="M652.883,1153.681a12.119,12.119,0,0,1,2.2-7.438,14.888,14.888,0,0,1,5.636-4.6,21.993,21.993,0,0,1,7.637-2,29.009,29.009,0,0,1,8.2.44,25.746,25.746,0,0,1,7.356,2.64,13.407,13.407,0,0,1,4.511,3.842,2.984,2.984,0,0,1,.527,1.756v5.837a.39.39,0,0,1-.737.178,28.211,28.211,0,0,0-6.339-8.173,23.379,23.379,0,0,0-8.2-4.72,17.963,17.963,0,0,0-8.076-.68,15.357,15.357,0,0,0-6.637,2.52,7.881,7.881,0,0,0-3.2,3.88,6.572,6.572,0,0,0,.479,5.239,19.331,19.331,0,0,0,5.317,6.16,53.7,53.7,0,0,0,11.314,6.719q3.28,1.439,6.357,3.039a26.215,26.215,0,0,1,5.438,3.719,17.736,17.736,0,0,1,3.8,4.8,12.927,12.927,0,0,1,1.439,6.2,12.319,12.319,0,0,1-4.638,10,17.589,17.589,0,0,1-8.277,3.361,28.857,28.857,0,0,1-10-.32,33.416,33.416,0,0,1-10-3.8,27.6,27.6,0,0,1-7.476-6.191,3.142,3.142,0,0,1-.719-2.028v-8a.4.4,0,0,1,.763-.153,39.476,39.476,0,0,0,6.713,10.617,30.415,30.415,0,0,0,9.555,7.359,20.322,20.322,0,0,0,10.035,2.039,14.594,14.594,0,0,0,8.756-3.519,7.422,7.422,0,0,0,2.558-3.959,6.949,6.949,0,0,0-.958-5.04,20.89,20.89,0,0,0-5.478-5.879,55.059,55.059,0,0,0-10.915-6.319q-3.2-1.442-6.237-3.079a29.916,29.916,0,0,1-5.437-3.721,17.2,17.2,0,0,1-3.838-4.679A12.261,12.261,0,0,1,652.883,1153.681Z" transform="translate(329.114 331.597)"/><path class="cls-3" d="M714.532,1140.938a.3.3,0,0,0-.3-.294q-3.023.009-5.536.2a30.383,30.383,0,0,0-4.919.76,18,18,0,0,0-4.277,1.64,16.47,16.47,0,0,0-2.357,1.565,1.006,1.006,0,0,1-1.641-.776V1140.3a.291.291,0,0,1,.291-.292h43.556a.291.291,0,0,1,.291.292v3.83a.981.981,0,0,1-1.592.763,17.346,17.346,0,0,0-6.764-3.285,30.353,30.353,0,0,0-4.877-.76q-2.478-.189-5.5-.2a.3.3,0,0,0-.3.294v55.327a.291.291,0,0,1-.291.291h-5.5a.291.291,0,0,1-.291-.291Z" transform="translate(329.114 331.597)"/><path class="cls-3" d="M758.431,1140.883a26.028,26.028,0,0,1,11.154-.76,28.262,28.262,0,0,1,10.235,3.6,28.817,28.817,0,0,1,8.157,7.239,27.312,27.312,0,0,1,4.917,10.16,26.5,26.5,0,0,1,.8,11.158,28.935,28.935,0,0,1-3.518,10.318,28.135,28.135,0,0,1-7.157,8.239,27.853,27.853,0,0,1-10.114,5,26.767,26.767,0,0,1-11.2.8,28.089,28.089,0,0,1-10.195-3.519,28.762,28.762,0,0,1-8.2-7.2,27.859,27.859,0,0,1-5.037-10.239,27.469,27.469,0,0,1-.68-11.279,28.7,28.7,0,0,1,3.6-10.319,29.128,29.128,0,0,1,7.157-8.2A27.493,27.493,0,0,1,758.431,1140.883Zm.08.64a17.125,17.125,0,0,0-8.355,4.839,22.592,22.592,0,0,0-4.839,8.119,31.308,31.308,0,0,0-1.678,9.8,35.846,35.846,0,0,0,1.119,9.72,34.43,34.43,0,0,0,3.837,8.958,30.659,30.659,0,0,0,6.318,7.56,23.783,23.783,0,0,0,8.236,4.638,18.224,18.224,0,0,0,17.991-4.719,23.534,23.534,0,0,0,4.917-8.2,31.405,31.405,0,0,0,1.76-9.8,34.914,34.914,0,0,0-1.08-9.718,34.171,34.171,0,0,0-3.837-9.04,30.959,30.959,0,0,0-6.358-7.6,22.825,22.825,0,0,0-8.315-4.6A17,17,0,0,0,758.511,1141.523Z" transform="translate(329.114 331.597)"/><path class="cls-3" d="M823.564,1165.159a.289.289,0,0,0-.036.556,12.193,12.193,0,0,1,3.991,2.125,19.6,19.6,0,0,1,3.8,4.159,29.871,29.871,0,0,1,2.839,5.239q1.2,2.841,2.4,5.64,1.12,2.641,2.279,5a25.588,25.588,0,0,0,2.519,4.16,11.807,11.807,0,0,0,2.958,2.839,6.455,6.455,0,0,0,3.6,1.04v.64a25.087,25.087,0,0,1-8.875-1.32,14.172,14.172,0,0,1-5.438-3.479,13.338,13.338,0,0,1-2.919-4.96,42.211,42.211,0,0,1-1.439-5.679q-.52-2.878-.959-5.678a19.763,19.763,0,0,0-1.4-4.96A8.271,8.271,0,0,0,824.04,1167a8.995,8.995,0,0,0-5.237-1.321q-6.079,0-9.756-5.759a23.613,23.613,0,0,1-2.554-5.962.286.286,0,0,0-.564.071v42.235a.291.291,0,0,1-.292.291h-3.112a2.913,2.913,0,0,1-2.913-2.914V1140.3a.292.292,0,0,1,.292-.292h13.781a48.656,48.656,0,0,1,8.316.681,23.425,23.425,0,0,1,6.836,2.2,12.561,12.561,0,0,1,4.6,3.92,9.93,9.93,0,0,1,1.678,5.838,12.236,12.236,0,0,1-1.04,5.2,11.455,11.455,0,0,1-2.8,3.8,13.732,13.732,0,0,1-4.078,2.48A19.462,19.462,0,0,1,823.564,1165.159Zm5.233-12.518a11.571,11.571,0,0,0-1.278-5.718,10.641,10.641,0,0,0-3.36-3.68,13.858,13.858,0,0,0-4.837-2,26.445,26.445,0,0,0-5.637-.6h-5.977a1.78,1.78,0,0,0-1.779,1.78v3.178a28.018,28.018,0,0,0,1,7.84,23.425,23.425,0,0,0,2.678,6.079,14.55,14.55,0,0,0,4.038,4.039,9.158,9.158,0,0,0,5.158,1.56h.558a9.42,9.42,0,0,0,3.639-.88,8.65,8.65,0,0,0,3-2.319,11.4,11.4,0,0,0,2.04-3.84A17.527,17.527,0,0,0,828.8,1152.641Z" transform="translate(329.114 331.597)"/><path class="cls-3" d="M859.583,1193.791a2.124,2.124,0,0,0,2.124,2.125H873.1a13.5,13.5,0,0,0,8.556-2.56,14.744,14.744,0,0,0,3.867-4.965.505.505,0,0,1,.954.3l-.919,5.916a2.308,2.308,0,0,1-2.28,1.953H855.5a2,2,0,0,1-2-2v-53.265a1.211,1.211,0,0,1,1.211-1.211h30.295a.718.718,0,0,1,.718.718v4.765a.41.41,0,0,1-.688.3,25.11,25.11,0,0,0-3.43-2.579,15.057,15.057,0,0,0-4.158-1.76,26.37,26.37,0,0,0-4.918-.72q-2.718-.158-6.4-.159h-5.713a.844.844,0,0,0-.844.844V1153.6a18.176,18.176,0,0,0,1.039,6.679,8.669,8.669,0,0,0,3.118,4.039,12.677,12.677,0,0,0,5.2,1.961,42.259,42.259,0,0,0,6.253.512.948.948,0,0,1,.942.94v3.646a.726.726,0,0,1-1.209.543A12.511,12.511,0,0,0,871.9,1170q-2.478-1.12-4.918-2.44a21.234,21.234,0,0,1-4.478-3.24,9.728,9.728,0,0,1-2.361-3.661.286.286,0,0,0-.557.092Z" transform="translate(329.114 331.597)"/><g class="cls-4"><g id="_Radial_Repeat_" data-name="&lt;Radial Repeat&gt;"><path class="cls-3" d="M473.346,382.868q-9.078,34.421-3.482,73.679,5.656,39.291,25.713,80.4,20.109,41.122,53.566,78.082l51.611,56.989a80.988,80.988,0,0,0,114.393,5.666L830.571,573.157a89.8,89.8,0,0,0,6.281-126.835l-45.7-50.46q-33.471-36.96-72.407-61.019-38.937-24.029-77.312-33.676-38.331-9.613-73.312-4.131-34.914,5.508-60.315,28.483Q482.455,348.48,473.346,382.868Zm124.965-50.105A160.216,160.216,0,0,1,663.1,329.2q33.378,4.817,66.1,22.347a219.91,219.91,0,0,1,59.227,46.785L800.67,411.86a85.87,85.87,0,0,1-5.989,120.933l-109.2,98.891A86.646,86.646,0,0,1,563.1,625.622L551.542,612.86A216.36,216.36,0,0,1,511,549.156q-14.022-34.449-15.357-68.3a161.9,161.9,0,0,1,10.277-64.42,135.379,135.379,0,0,1,36.278-52.95A133.947,133.947,0,0,1,598.311,332.763Z" transform="translate(329.114 331.597)"/></g><g id="_Radial_Repeat_2" data-name="&lt;Radial Repeat&gt;"><path class="cls-3" d="M744.127,82.514q-34.42-9.079-73.679-3.482-39.291,5.657-80.4,25.713-41.122,20.109-78.082,53.565l-56.989,51.611a80.988,80.988,0,0,0-5.666,114.393L553.838,439.738a89.8,89.8,0,0,0,126.835,6.282l50.46-45.7q36.96-33.471,61.019-72.407,24.029-38.935,33.676-77.311,9.613-38.331,4.131-73.312-5.508-34.916-28.483-60.316Q778.516,91.622,744.127,82.514Zm50.105,124.964a160.235,160.235,0,0,1,3.559,64.786q-4.817,33.38-22.347,66.1a219.9,219.9,0,0,1-46.785,59.228l-13.525,12.248a85.868,85.868,0,0,1-120.932-5.99l-98.891-109.2a86.645,86.645,0,0,1,6.062-122.385l12.761-11.558a216.4,216.4,0,0,1,63.705-40.545q34.449-14.022,68.3-15.357a161.9,161.9,0,0,1,64.42,10.276,135.408,135.408,0,0,1,52.95,36.278A133.947,133.947,0,0,1,794.232,207.478Z" transform="translate(329.114 331.597)"/></g><g id="_Radial_Repeat_3" data-name="&lt;Radial Repeat&gt;"><path class="cls-3" d="M1044.482,353.294q9.078-34.419,3.482-73.678-5.657-39.292-25.713-80.4-20.109-41.123-53.566-78.081L917.074,64.14a80.986,80.986,0,0,0-114.392-5.665L687.257,163.006a89.8,89.8,0,0,0-6.281,126.835l45.7,50.46q33.473,36.959,72.407,61.019Q838.017,425.349,876.392,435q38.331,9.615,73.312,4.132,34.916-5.51,60.315-28.483Q1035.374,387.682,1044.482,353.294ZM919.517,403.4a160.233,160.233,0,0,1-64.786,3.559q-33.378-4.817-66.1-22.347a219.894,219.894,0,0,1-59.227-46.786L717.158,324.3a85.869,85.869,0,0,1,5.989-120.932l109.2-98.891a86.646,86.646,0,0,1,122.385,6.061L966.286,123.3a216.365,216.365,0,0,1,40.546,63.705q14.022,34.447,15.357,68.3a161.9,161.9,0,0,1-10.277,64.419,135.383,135.383,0,0,1-36.278,52.951A133.963,133.963,0,0,1,919.517,403.4Z" transform="translate(329.114 331.597)"/></g><g id="_Radial_Repeat_4" data-name="&lt;Radial Repeat&gt;"><path class="cls-3" d="M773.7,653.648q34.42,9.079,73.679,3.482,39.291-5.656,80.4-25.713,41.122-20.109,78.082-53.566l56.989-51.61a80.988,80.988,0,0,0,5.666-114.393L963.989,296.423a89.8,89.8,0,0,0-126.835-6.281l-50.46,45.7q-36.96,33.473-61.019,72.407Q701.647,447.183,692,485.558q-9.613,38.331-4.132,73.312,5.51,34.916,28.484,60.315Q739.312,644.54,773.7,653.648ZM723.6,528.684a160.222,160.222,0,0,1-3.559-64.787q4.817-33.378,22.347-66.1a219.9,219.9,0,0,1,46.785-59.228l13.524-12.248a85.869,85.869,0,0,1,120.932,5.989l98.892,109.2a86.646,86.646,0,0,1-6.062,122.385l-12.762,11.557A216.36,216.36,0,0,1,939.988,616q-34.449,14.022-68.3,15.357a161.9,161.9,0,0,1-64.42-10.277,135.379,135.379,0,0,1-52.95-36.278A133.943,133.943,0,0,1,723.6,528.684Z" transform="translate(329.114 331.597)"/></g></g><rect class="cls-5" x="477.79" y="99.115" width="556.54" height="544.651" rx="46.809" transform="translate(287.911 975.004) rotate(-45)"/><path class="cls-6" d="M172.68,971.855a61.481,61.481,0,0,0-16.446-13.88A126.192,126.192,0,0,0,132.7,947.226q-13.323-4.63-27.514-8.789Q73.33,928.5,56.209,919.006q-17.148-9.47-23.024-17.8t-2.079-15.155q3.809-6.816,13.853-11.21,11.748-5.547,28.724-7.288a114.854,114.854,0,0,1,34.96,1.972,120.533,120.533,0,0,1,35.474,13.643,97.509,97.509,0,0,1,28.316,24.716,1.3,1.3,0,0,0,2.325-.8V888.985A5.821,5.821,0,0,0,173,884.816q-7.184-6.88-20.056-11.6a150.486,150.486,0,0,0-31.842-7.631,186.335,186.335,0,0,0-35.474-1.275,134.61,134.61,0,0,0-33.063,5.777q-14.882,4.741-24.4,13.3A27.7,27.7,0,0,0,18.646,904.9a26.507,26.507,0,0,0,6.235,17.459A60.711,60.711,0,0,0,41.488,935.9a145.9,145.9,0,0,0,23.538,10.75q13.163,4.741,27,8.906,30.115,9.245,47.248,18.274t23.71,17q6.573,7.974,4.157,14.566t-11.078,11.446q-16.281,9.261-37.906,10.182a126.436,126.436,0,0,1-43.434-5.9,139.319,139.319,0,0,1-41.367-21.275,120.486,120.486,0,0,1-28.926-30.5A1.866,1.866,0,0,0,1,970.354v22.2a7.4,7.4,0,0,0,2.8,5.788,121.343,121.343,0,0,0,32.678,18.155,193.87,193.87,0,0,0,43.263,10.986,186.065,186.065,0,0,0,43.273.922q20.94-2.075,35.817-9.71a44.823,44.823,0,0,0,14.721-12.262,27.093,27.093,0,0,0,5.357-16.655A27.825,27.825,0,0,0,172.68,971.855Z" transform="translate(329.114 331.597)"/><path class="cls-6" d="M836.557,915.426A92.253,92.253,0,0,0,810.426,889.4a135.9,135.9,0,0,0-38.42-17.459,168.253,168.253,0,0,0-46.906-6.356H646.182v158.87a4.4,4.4,0,0,0,4.4,4.4H725.1a167.883,167.883,0,0,0,46.906-6.356,137.564,137.564,0,0,0,38.42-17.352,91.4,91.4,0,0,0,26.131-25.787,57.607,57.607,0,0,0,0-63.942ZM813.19,978.564a80.116,80.116,0,0,1-20.42,25.208,100.163,100.163,0,0,1-30.46,17,109.9,109.9,0,0,1-37.21,6.248H705.548a32.367,32.367,0,0,1-32.367-32.366V883.835a16.627,16.627,0,0,1,16.628-16.628H725.1a108.145,108.145,0,0,1,37.21,6.355A100.683,100.683,0,0,1,792.77,890.8a80.959,80.959,0,0,1,20.42,25.434,67.722,67.722,0,0,1,7.447,31.221A67,67,0,0,1,813.19,978.564Z" transform="translate(329.114 331.597)"/><path class="cls-6" d="M523.057,866.328l-.46-.75-.215-.333-.782-1.264-1.135,1.264-.29.333q-10.044,11.107-20.42,24.286t-20.421,26.944Q469.29,930.57,460.3,944.332q-9.015,13.761-15.931,26.248a154.275,154.275,0,0,0-9.857,20.706,114.6,114.6,0,0,0-4.018,12.551c-.4,1.618-.729,3.172-1.007,4.673a24.374,24.374,0,0,0-.161,8.37c0,.022.011.032.011.054.579,5.369,3.836,12.336,16.724,13.268.343.033.7.043,1.072.065h.075c.653.021,1.285.021,1.907-.011.011.011.021.011.043,0a23.685,23.685,0,0,0,7.328-1.286,24.671,24.671,0,0,0,7.275-4.041,30.679,30.679,0,0,0,5.71-6.248,86.578,86.578,0,0,0,5.014-8.092q4.147-6.239,9.354-13.526a57.776,57.776,0,0,1,14.356-13.644q9.177-6.366,23.367-11.1,13.114-4.373,33.064-5.906a5.4,5.4,0,0,1,4.992,2.508l35.624,57.1a6.011,6.011,0,0,0,5.1,2.829h25.756Zm-73.626,161.645c0,.011-.01.011-.021.011h-.139a.29.29,0,0,1-.1-.011c-.418.022-.846.022-1.275.011.279-.011.568-.011.847-.032h.032c1.393-.054,2.657-.129,3.814-.268A24.314,24.314,0,0,1,449.431,1027.973Zm104.5-64.821-1.532.247c-1.179.15-2.947.418-2.947.418s-22.852,2.968-31.231,5.8q-14.159,4.743-23.067,11.221a65.283,65.283,0,0,0-14.324,13.73q-3.133,4.249-5.814,8.15c-1.388,2.029-3.544,5.411-4.727,7.566a48.278,48.278,0,0,1-7.994,10.971c-3.225,3.258-6.986,4.223-13.221,4.437-.9-.085-1.907-.268-2.315-.332a18.56,18.56,0,0,1-2.528-.557,15.135,15.135,0,0,1-4.778-2.208,13.452,13.452,0,0,1-2.722-2.562,10.553,10.553,0,0,1-1.789-3.065,11.63,11.63,0,0,1-.589-3.012,23.165,23.165,0,0,1-.118-3.708,37.035,37.035,0,0,1,1.275-7.653,110.435,110.435,0,0,1,4.1-12.325,155.127,155.127,0,0,1,9.8-20.074c3.653-6.474,7.789-13.247,12.342-20.321q6.863-10.595,14.571-21.318t15.749-21.317q6.848-9.084,13.6-17.642a2.639,2.639,0,0,1,2.288-.975l.069.043,45.449,70.64a21.325,21.325,0,0,1,1.264,2.251.034.034,0,0,0,.011.022A1.113,1.113,0,0,1,553.935,963.152Z" transform="translate(329.114 331.597)"/><path class="cls-6" d="M304.767,866.328l-.461-.75-.214-.333-.782-1.264-1.136,1.264-.289.333q-10.044,11.107-20.421,24.286t-20.421,26.944Q251,930.57,242.005,944.332q-9.017,13.761-15.932,26.248a154.521,154.521,0,0,0-9.857,20.706,114.361,114.361,0,0,0-4.017,12.551c-.4,1.618-.729,3.172-1.008,4.673a24.371,24.371,0,0,0-.16,8.37c0,.022.01.032.01.054.579,5.369,3.836,12.336,16.725,13.268.343.033.7.043,1.071.065h.075c.654.021,1.286.021,1.907-.011.011.011.022.011.043,0a23.691,23.691,0,0,0,7.329-1.286,24.653,24.653,0,0,0,7.274-4.041,30.682,30.682,0,0,0,5.711-6.248,86.578,86.578,0,0,0,5.014-8.092q4.146-6.239,9.353-13.526A57.782,57.782,0,0,1,279.9,983.419q9.177-6.366,23.367-11.1,13.113-4.373,33.063-5.906a5.4,5.4,0,0,1,4.993,2.508l35.624,57.1a6.008,6.008,0,0,0,5.1,2.829H407.8Zm-73.626,161.645c0,.011-.011.011-.022.011h-.139a.287.287,0,0,1-.1-.011c-.418.022-.847.022-1.275.011.278-.011.568-.011.846-.032h.032c1.393-.054,2.657-.129,3.814-.268A24.3,24.3,0,0,1,231.141,1027.973Zm104.5-64.821-1.532.247c-1.178.15-2.946.418-2.946.418s-22.853,2.968-31.231,5.8q-14.159,4.743-23.067,11.221a65.267,65.267,0,0,0-14.325,13.73q-3.134,4.249-5.813,8.15c-1.389,2.029-3.545,5.411-4.728,7.566a48.217,48.217,0,0,1-7.994,10.971c-3.225,3.258-6.985,4.223-13.221,4.437-.9-.085-1.907-.268-2.314-.332a18.528,18.528,0,0,1-2.528-.557,15.129,15.129,0,0,1-4.779-2.208,13.438,13.438,0,0,1-2.721-2.562,10.553,10.553,0,0,1-1.789-3.065,11.671,11.671,0,0,1-.59-3.012,23.165,23.165,0,0,1-.118-3.708,37.035,37.035,0,0,1,1.275-7.653,110.455,110.455,0,0,1,4.1-12.325,155.111,155.111,0,0,1,9.8-20.074c3.654-6.474,7.789-13.247,12.342-20.321q6.862-10.595,14.571-21.318t15.75-21.317q6.846-9.084,13.6-17.642a2.637,2.637,0,0,1,2.288-.975l.069.043,45.448,70.64a21.157,21.157,0,0,1,1.265,2.251.036.036,0,0,0,.01.022A1.112,1.112,0,0,1,335.644,963.152Z" transform="translate(329.114 331.597)"/><path class="cls-6" d="M960.368,866.328l-.472-.75-.2-.333-.783-1.264-1.146,1.264-.278.333q-10.06,11.107-20.432,24.286-10.365,13.2-20.421,26.955-10.028,13.763-19.028,27.513T881.674,970.58a155.2,155.2,0,0,0-9.868,20.706,112.269,112.269,0,0,0-4.007,12.551c-.407,1.629-.739,3.172-1.018,4.673a24.651,24.651,0,0,0-.16,8.37c0,.022.021.032.021.054.568,5.369,3.836,12.336,16.714,13.268.353.033.707.054,1.071.075h.086c.654.011,1.286.011,1.907-.01a.021.021,0,0,0,.032,0,23.934,23.934,0,0,0,7.328-1.3,24.3,24.3,0,0,0,7.275-4.041,30.44,30.44,0,0,0,5.722-6.248,85.346,85.346,0,0,0,5-8.092q4.162-6.239,9.364-13.515a57.553,57.553,0,0,1,14.346-13.655q9.177-6.366,23.367-11.1,13.13-4.373,33.063-5.906a5.393,5.393,0,0,1,4.993,2.508l35.634,57.1a6.038,6.038,0,0,0,5.12,2.84h25.726Zm28.852,98.593q-19.188,1.591-32.1,5.894-14.527,4.855-23.7,11.447a66.945,66.945,0,0,0-14.71,13.987q-3.664,4.9-6.729,9.388c-1.424,2.1-2.785,4.234-4.007,6.452a50.209,50.209,0,0,1-8.3,11.34c-3.46,3.462-7.532,4.373-14.474,4.555a26.823,26.823,0,0,1-3.354-.386,22.67,22.67,0,0,1-2.593-.589,15.342,15.342,0,0,1-4.907-2.251,14.127,14.127,0,0,1-2.807-2.637,10.409,10.409,0,0,1-1.853-3.129,12.207,12.207,0,0,1-.632-3.087,24.438,24.438,0,0,1-.15-3.816,37.941,37.941,0,0,1,1.243-7.824,110.839,110.839,0,0,1,4.092-12.636,158.661,158.661,0,0,1,9.857-20.578q5.529-9.951,12.46-20.825t14.711-21.853q7.794-10.98,15.931-21.843,6.927-9.307,13.757-18.07a2.682,2.682,0,0,1,4.382.2l46.134,71.712A2.955,2.955,0,0,1,989.22,964.921Z" transform="translate(329.114 331.597)"/><path class="cls-6" d="M1307.22,885.8a20.5,20.5,0,0,0-1.479-4.5,26.529,26.529,0,0,0-8.656-10.192c-4.029-3.012-9.4-5.338-16.093-7.052a65.319,65.319,0,0,0-20.763-2.187,66.994,66.994,0,0,0-19.735,4.041,59.023,59.023,0,0,0-6.975,3.1,56.164,56.164,0,0,0-5.925,3.183c-.011,0-.011.022-.021.022a58.122,58.122,0,0,0-6.2,4.351,55.5,55.5,0,0,0-9.977,10.478l-.072.107q-8.383,13.448-16.735,26.906c-1.608,2.6-3.225,5.187-4.832,7.781l-.365.579-.482-.783-.01-.01-1.768-2.84-1.447-2.337-33.791-54.457-.011-.011h-28.321a.419.419,0,0,0-.356.641l51.723,83.065.16.257-35.313,56.429-.043-.075L1051.5,861.987a.011.011,0,0,0-.011-.011h-29.343a.42.42,0,0,0-.354.644l86.46,136.576,16.778,26.73,1.425,2.272,1.72,2.733a.42.42,0,0,0,.712,0l14.164-22.868c.021.01.021.021.032.042l10.6-17.03,24.6-39.624.011.032.021.022,47.354,75.657a.42.42,0,0,0,.711,0l13.99-22.347.493-.782.589-.922,61.005-96.953a33.2,33.2,0,0,0,3.6-7.009c.054-.172.129-.333.172-.515a27.645,27.645,0,0,0,1.253-5.187,23.759,23.759,0,0,0,.193-3.88v-.011A19.924,19.924,0,0,0,1307.22,885.8Zm-8.517,9.056a24.179,24.179,0,0,1-1.061,4.534c-.043.161-.1.3-.139.45a29.41,29.41,0,0,1-3.065,6.152l-51.866,84.949-.493.8-2.785,4.587a2.432,2.432,0,0,1-4.157.022l-37.981-61.242a13.3,13.3,0,0,1,0-14.008l.857-1.382,1.114-1.79c2.09-3.483,4.179-6.817,6.279-10.128l.192-.311c3.778-5.974,7.535-11.82,11.355-18.136l.163-.247a48.227,48.227,0,0,1,8.389-9.055,50.664,50.664,0,0,1,5.271-3.805c.011,0,.011-.021.022-.021a46.912,46.912,0,0,1,5.024-2.787,49.743,49.743,0,0,1,5.947-2.711,55.275,55.275,0,0,1,16.767-3.537,53.665,53.665,0,0,1,17.657,1.908,38.324,38.324,0,0,1,13.681,6.184,23.1,23.1,0,0,1,7.361,8.917,19.664,19.664,0,0,1,1.639,7.245A20.391,20.391,0,0,1,1298.7,894.858Z" transform="translate(329.114 331.597)"/><path class="cls-6" d="M1512.2,865.352a24.4,24.4,0,0,0-7.264,1.736,68.16,68.16,0,0,0-7.447,3.472,36.94,36.94,0,0,0-6.23,4.162,18.716,18.716,0,0,0-3.632,3.818l-31.4,40.494-.9,1.15-18.133,23.39a43.433,43.433,0,0,0-9.107,26.611v54.768a3.908,3.908,0,0,1-3.908,3.907h-23.435V965.471a13.917,13.917,0,0,0-3.524-9.255l-80.931-90.864h26.086a11.279,11.279,0,0,1,8.426,3.781l49.943,56.122,16.725,18.565a7.886,7.886,0,0,0,12.106-.464l54.217-70.337a2.808,2.808,0,0,0-.3-3.832l-.022-.018a14.656,14.656,0,0,0-5.023-2.656,26.822,26.822,0,0,0-5.367-1.161H1512.2Z" transform="translate(329.114 331.597)"/></svg>