<svg id="Layer_1" data-name="Layer 1" xmlns="http://www.w3.org/2000/svg" xmlns:xlink="http://www.w3.org/1999/xlink" viewBox="0 0 2165.106 2158.979"><defs><clipPath id="clip-path" transform="translate(5.714 2.308)"><rect x="801.19" y="428.405" width="556.54" height="544.651" rx="46.809" transform="translate(-179.324 968.533) rotate(-45)" fill="none"/></clipPath></defs><path d="M16.426,0h2148.68a0,0,0,0,1,0,0V2142.553a16.426,16.426,0,0,1-16.426,16.426H16.426A16.426,16.426,0,0,1,0,2142.553V16.426A16.426,16.426,0,0,1,16.426,0Z" fill="#44564c"/><path d="M976.283,1482.971a12.13,12.13,0,0,1,2.2-7.439,14.883,14.883,0,0,1,5.637-4.6,21.993,21.993,0,0,1,7.637-2,28.926,28.926,0,0,1,8.2.44,25.74,25.74,0,0,1,7.357,2.639,13.407,13.407,0,0,1,4.511,3.842,2.986,2.986,0,0,1,.527,1.756v5.837a.39.39,0,0,1-.737.178,28.241,28.241,0,0,0-6.339-8.173,23.36,23.36,0,0,0-8.2-4.719,17.953,17.953,0,0,0-8.077-.68,15.333,15.333,0,0,0-6.636,2.52,7.878,7.878,0,0,0-3.2,3.88,6.578,6.578,0,0,0,.48,5.239,19.348,19.348,0,0,0,5.316,6.159,53.669,53.669,0,0,0,11.315,6.719q3.279,1.438,6.357,3.039a26.182,26.182,0,0,1,5.437,3.719,17.721,17.721,0,0,1,3.8,4.8,12.909,12.909,0,0,1,1.44,6.2,12.323,12.323,0,0,1-4.638,10,17.578,17.578,0,0,1-8.277,3.36,28.832,28.832,0,0,1-10-.32,33.413,33.413,0,0,1-10-3.8,27.587,27.587,0,0,1-7.476-6.192,3.138,3.138,0,0,1-.719-2.028v-8a.4.4,0,0,1,.763-.154,39.465,39.465,0,0,0,6.712,10.618,30.445,30.445,0,0,0,9.556,7.359,20.34,20.34,0,0,0,10.034,2.039,14.6,14.6,0,0,0,8.756-3.519,7.421,7.421,0,0,0,2.559-3.96,6.949,6.949,0,0,0-.958-5.04,20.9,20.9,0,0,0-5.478-5.879,55.138,55.138,0,0,0-10.915-6.319q-3.2-1.44-6.237-3.079a29.959,29.959,0,0,1-5.438-3.721,17.216,17.216,0,0,1-3.837-4.678A12.264,12.264,0,0,1,976.283,1482.971Z" transform="translate(5.714 2.308)" fill="#fbf4eb" stroke="#fbf4eb" stroke-miterlimit="10"/><path d="M1037.932,1470.227a.3.3,0,0,0-.3-.293q-3.023.009-5.537.2a30.5,30.5,0,0,0-4.918.76,17.991,17.991,0,0,0-4.277,1.641,16.377,16.377,0,0,0-2.357,1.564,1.006,1.006,0,0,1-1.641-.775v-3.738a.291.291,0,0,1,.291-.291h43.556a.291.291,0,0,1,.291.291v3.831a.981.981,0,0,1-1.592.762,17.384,17.384,0,0,0-6.764-3.285,30.465,30.465,0,0,0-4.877-.76q-2.479-.189-5.5-.2a.3.3,0,0,0-.3.293v55.327a.292.292,0,0,1-.292.292h-5.494a.292.292,0,0,1-.292-.292Z" transform="translate(5.714 2.308)" fill="#fbf4eb" stroke="#fbf4eb" stroke-miterlimit="10"/><path d="M1081.832,1470.172a26.028,26.028,0,0,1,11.154-.76,28.262,28.262,0,0,1,10.235,3.6,28.819,28.819,0,0,1,8.157,7.24,27.307,27.307,0,0,1,4.917,10.159,26.5,26.5,0,0,1,.8,11.158,28.94,28.94,0,0,1-3.518,10.319,28.182,28.182,0,0,1-17.271,13.238,26.751,26.751,0,0,1-11.2.8,28.106,28.106,0,0,1-10.195-3.518,28.766,28.766,0,0,1-8.2-7.2,27.861,27.861,0,0,1-5.038-10.239,27.485,27.485,0,0,1-.68-11.279,28.712,28.712,0,0,1,3.6-10.318,29.116,29.116,0,0,1,7.157-8.2A27.524,27.524,0,0,1,1081.832,1470.172Zm.079.64a17.128,17.128,0,0,0-8.355,4.84,22.571,22.571,0,0,0-4.838,8.118,31.349,31.349,0,0,0-1.679,9.8,35.834,35.834,0,0,0,1.12,9.719,34.45,34.45,0,0,0,3.837,8.959,30.672,30.672,0,0,0,6.318,7.559,23.776,23.776,0,0,0,8.236,4.639,18.221,18.221,0,0,0,17.991-4.72,23.53,23.53,0,0,0,4.917-8.2,31.406,31.406,0,0,0,1.759-9.8,34.877,34.877,0,0,0-1.079-9.718,34.168,34.168,0,0,0-3.838-9.039,30.915,30.915,0,0,0-6.358-7.6,22.794,22.794,0,0,0-8.315-4.6A17,17,0,0,0,1081.911,1470.812Z" transform="translate(5.714 2.308)" fill="#fbf4eb" stroke="#fbf4eb" stroke-miterlimit="10"/><path d="M1146.965,1494.448a.289.289,0,0,0-.036.556,12.162,12.162,0,0,1,3.99,2.126,19.581,19.581,0,0,1,3.8,4.159,29.9,29.9,0,0,1,2.839,5.239q1.2,2.84,2.4,5.64,1.121,2.64,2.279,5a25.642,25.642,0,0,0,2.519,4.161,11.786,11.786,0,0,0,2.958,2.838,6.448,6.448,0,0,0,3.6,1.041v.64a25.1,25.1,0,0,1-8.876-1.321,14.167,14.167,0,0,1-5.437-3.479,13.323,13.323,0,0,1-2.919-4.96,42.235,42.235,0,0,1-1.439-5.678q-.521-2.88-.959-5.679a19.762,19.762,0,0,0-1.4-4.96,8.264,8.264,0,0,0-2.839-3.479,8.993,8.993,0,0,0-5.237-1.32q-6.078,0-9.756-5.76a23.625,23.625,0,0,1-2.553-5.961.286.286,0,0,0-.564.07v42.235a.292.292,0,0,1-.292.292h-3.112a2.914,2.914,0,0,1-2.913-2.914v-53.348a.291.291,0,0,1,.291-.291h13.782a48.667,48.667,0,0,1,8.316.68,23.455,23.455,0,0,1,6.836,2.2,12.54,12.54,0,0,1,4.6,3.92,9.919,9.919,0,0,1,1.679,5.838,12.231,12.231,0,0,1-1.04,5.2,11.461,11.461,0,0,1-2.8,3.8,13.707,13.707,0,0,1-4.078,2.48A19.355,19.355,0,0,1,1146.965,1494.448Zm5.233-12.517a11.575,11.575,0,0,0-1.279-5.719,10.626,10.626,0,0,0-3.359-3.679,13.857,13.857,0,0,0-4.838-2,26.442,26.442,0,0,0-5.636-.6h-5.977a1.779,1.779,0,0,0-1.779,1.78v3.179a28.018,28.018,0,0,0,1,7.84,23.4,23.4,0,0,0,2.678,6.078,14.54,14.54,0,0,0,4.038,4.04,9.156,9.156,0,0,0,5.157,1.559h.559a9.442,9.442,0,0,0,3.639-.879,8.65,8.65,0,0,0,3-2.319,11.429,11.429,0,0,0,2.04-3.841A17.52,17.52,0,0,0,1152.2,1481.931Z" transform="translate(5.714 2.308)" fill="#fbf4eb" stroke="#fbf4eb" stroke-miterlimit="10"/><path d="M1182.983,1523.08a2.126,2.126,0,0,0,2.125,2.126H1196.5a13.5,13.5,0,0,0,8.556-2.56,14.769,14.769,0,0,0,3.867-4.965.5.5,0,0,1,.954.3l-.919,5.916a2.309,2.309,0,0,1-2.28,1.954H1178.9a2,2,0,0,1-2-2v-53.264a1.211,1.211,0,0,1,1.211-1.211h30.3a.717.717,0,0,1,.717.717v4.766a.41.41,0,0,1-.688.3,25.114,25.114,0,0,0-3.429-2.578,15.09,15.09,0,0,0-4.158-1.761,26.537,26.537,0,0,0-4.918-.72q-2.718-.158-6.4-.159h-5.713a.844.844,0,0,0-.844.844v12.114a18.174,18.174,0,0,0,1.04,6.679,8.669,8.669,0,0,0,3.118,4.039,12.677,12.677,0,0,0,5.2,1.961,41.99,41.99,0,0,0,6.253.512.95.95,0,0,1,.942.94v3.646a.726.726,0,0,1-1.21.543,12.482,12.482,0,0,0-3.027-1.921q-2.48-1.12-4.918-2.441a21.234,21.234,0,0,1-4.478-3.24,9.741,9.741,0,0,1-2.362-3.661.286.286,0,0,0-.557.092Z" transform="translate(5.714 2.308)" fill="#fbf4eb" stroke="#fbf4eb" stroke-miterlimit="10"/><g clip-path="url(#clip-path)"><g id="_Radial_Repeat_" data-name="&lt;Radial Repeat&gt;"><path d="M796.747,712.158q-9.079,34.419-3.482,73.678,5.656,39.291,25.713,80.4,20.109,41.122,53.566,78.081l51.61,56.99a80.988,80.988,0,0,0,114.393,5.665l115.425-104.531a89.8,89.8,0,0,0,6.281-126.835l-45.7-50.46q-33.473-36.96-72.407-61.019-38.937-24.028-77.312-33.675-38.331-9.615-73.312-4.132-34.915,5.508-60.315,28.483Q805.854,677.77,796.747,712.158Zm124.964-50.106a160.235,160.235,0,0,1,64.786-3.559q33.38,4.816,66.1,22.347a219.883,219.883,0,0,1,59.228,46.786l12.248,13.524a85.869,85.869,0,0,1-5.989,120.932l-109.2,98.891A86.646,86.646,0,0,1,886.5,954.912L874.943,942.15a216.378,216.378,0,0,1-40.546-63.7Q820.375,844,819.04,810.146a161.88,161.88,0,0,1,10.277-64.419,135.391,135.391,0,0,1,36.277-52.951A133.953,133.953,0,0,1,921.711,662.052Z" transform="translate(5.714 2.308)" fill="#fbf4eb" stroke="#fbf4eb" stroke-miterlimit="10"/></g><g id="_Radial_Repeat_2" data-name="&lt;Radial Repeat&gt;"><path d="M1067.527,411.8q-34.419-9.078-73.678-3.482-39.291,5.656-80.4,25.713-41.124,20.109-78.082,53.566l-56.989,51.611A80.986,80.986,0,0,0,772.708,653.6L877.239,769.028a89.8,89.8,0,0,0,126.835,6.281l50.46-45.7q36.96-33.472,61.019-72.407,24.028-38.937,33.676-77.312,9.613-38.331,4.131-73.312-5.508-34.914-28.483-60.315Q1101.915,420.912,1067.527,411.8Zm50.106,124.965a160.233,160.233,0,0,1,3.559,64.786q-4.816,33.378-22.347,66.1a219.894,219.894,0,0,1-46.786,59.227l-13.524,12.248A85.869,85.869,0,0,1,917.6,733.138l-98.891-109.2a86.646,86.646,0,0,1,6.061-122.385L837.535,490a216.378,216.378,0,0,1,63.705-40.546q34.449-14.022,68.3-15.357a161.9,161.9,0,0,1,64.419,10.277,135.383,135.383,0,0,1,52.951,36.278A133.941,133.941,0,0,1,1117.633,536.768Z" transform="translate(5.714 2.308)" fill="#fbf4eb" stroke="#fbf4eb" stroke-miterlimit="10"/></g><g id="_Radial_Repeat_3" data-name="&lt;Radial Repeat&gt;"><path d="M1367.882,682.584q9.079-34.421,3.483-73.679-5.656-39.291-25.713-80.4-20.111-41.124-53.566-78.082l-51.611-56.989a80.987,80.987,0,0,0-114.393-5.666L1010.658,492.3a89.8,89.8,0,0,0-6.282,126.835l45.7,50.46q33.471,36.96,72.407,61.019,38.937,24.029,77.312,33.676,38.331,9.614,73.312,4.131,34.914-5.508,60.315-28.483Q1358.775,716.971,1367.882,682.584Zm-124.964,50.105a160.234,160.234,0,0,1-64.786,3.559q-33.378-4.817-66.1-22.347a219.894,219.894,0,0,1-59.227-46.785l-12.248-13.525a85.868,85.868,0,0,1,5.989-120.932l109.2-98.891a86.645,86.645,0,0,1,122.385,6.062l11.557,12.761a216.4,216.4,0,0,1,40.546,63.705q14.02,34.449,15.357,68.3a161.9,161.9,0,0,1-10.277,64.42,135.4,135.4,0,0,1-36.278,52.95A133.947,133.947,0,0,1,1242.918,732.689Z" transform="translate(5.714 2.308)" fill="#fbf4eb" stroke="#fbf4eb" stroke-miterlimit="10"/></g><g id="_Radial_Repeat_4" data-name="&lt;Radial Repeat&gt;"><path d="M1097.1,982.937q34.419,9.079,73.678,3.482,39.293-5.655,80.4-25.713,41.122-20.109,78.082-53.565l56.989-51.611a80.987,80.987,0,0,0,5.665-114.393L1287.39,625.713a89.8,89.8,0,0,0-126.836-6.282l-50.46,45.7q-36.959,33.471-61.018,72.407-24.03,38.937-33.676,77.311-9.615,38.331-4.132,73.313,5.51,34.914,28.483,60.315Q1062.713,973.83,1097.1,982.937Zm-50.106-124.964a160.253,160.253,0,0,1-3.559-64.786q4.818-33.38,22.347-66.1a219.9,219.9,0,0,1,46.786-59.228l13.524-12.248a85.868,85.868,0,0,1,120.932,5.99l98.891,109.2a86.646,86.646,0,0,1-6.061,122.385l-12.762,11.558a216.377,216.377,0,0,1-63.7,40.545q-34.449,14.022-68.3,15.357a161.885,161.885,0,0,1-64.42-10.276,135.393,135.393,0,0,1-52.95-36.278A133.96,133.96,0,0,1,1046.995,857.973Z" transform="translate(5.714 2.308)" fill="#fbf4eb" stroke="#fbf4eb" stroke-miterlimit="10"/></g></g><rect x="801.19" y="428.405" width="556.54" height="544.651" rx="46.809" transform="translate(-173.611 970.84) rotate(-45)" fill="none" stroke="#fbf4eb" stroke-miterlimit="10" stroke-width="3"/><path d="M496.081,1301.144a61.46,61.46,0,0,0-16.446-13.879,126.2,126.2,0,0,0-23.539-10.75q-13.323-4.63-27.513-8.789-31.853-9.935-48.973-19.431-17.148-9.47-23.025-17.8t-2.078-15.155q3.808-6.816,13.853-11.211,11.748-5.547,28.724-7.288a114.854,114.854,0,0,1,34.96,1.972,120.5,120.5,0,0,1,35.473,13.644,97.509,97.509,0,0,1,28.317,24.715,1.3,1.3,0,0,0,2.325-.8v-18.092a5.823,5.823,0,0,0-1.757-4.169q-7.183-6.88-20.056-11.6a150.364,150.364,0,0,0-31.842-7.631,186.334,186.334,0,0,0-35.474-1.276,134.657,134.657,0,0,0-33.063,5.777q-14.881,4.743-24.4,13.3a27.7,27.7,0,0,0-9.524,21.51,26.51,26.51,0,0,0,6.235,17.46,60.676,60.676,0,0,0,16.607,13.536,145.814,145.814,0,0,0,23.538,10.75q13.162,4.743,27,8.907,30.117,9.243,47.249,18.273t23.71,17q6.573,7.974,4.157,14.565t-11.079,11.447q-16.28,9.26-37.906,10.182a126.444,126.444,0,0,1-43.434-5.906,139.267,139.267,0,0,1-41.366-21.275,120.47,120.47,0,0,1-28.926-30.5,1.866,1.866,0,0,0-3.43,1.016v22.2a7.393,7.393,0,0,0,2.8,5.788,121.345,121.345,0,0,0,32.678,18.156,193.93,193.93,0,0,0,43.262,10.986,186.073,186.073,0,0,0,43.274.921q20.94-2.073,35.817-9.71a44.829,44.829,0,0,0,14.72-12.261,27.09,27.09,0,0,0,5.357-16.656A27.826,27.826,0,0,0,496.081,1301.144Z" transform="translate(5.714 2.308)" fill="#fbf4eb" stroke="#fbf4eb" stroke-miterlimit="10" stroke-width="2"/><path d="M1159.958,1244.715a92.266,92.266,0,0,0-26.131-26.023,135.9,135.9,0,0,0-38.42-17.459,168.29,168.29,0,0,0-46.906-6.355H969.583v158.869a4.4,4.4,0,0,0,4.4,4.4H1048.5a167.847,167.847,0,0,0,46.906-6.356,137.564,137.564,0,0,0,38.42-17.352,91.39,91.39,0,0,0,26.131-25.787,57.607,57.607,0,0,0,0-63.942Zm-23.367,63.139a80.116,80.116,0,0,1-20.421,25.208,100.165,100.165,0,0,1-30.459,17,109.88,109.88,0,0,1-37.21,6.249h-19.553a32.367,32.367,0,0,1-32.366-32.367V1213.124a16.628,16.628,0,0,1,16.628-16.628H1048.5a108.122,108.122,0,0,1,37.21,6.356,100.665,100.665,0,0,1,30.459,17.234,80.944,80.944,0,0,1,20.421,25.433,67.721,67.721,0,0,1,7.446,31.221A67,67,0,0,1,1136.591,1307.854Z" transform="translate(5.714 2.308)" fill="#fbf4eb" stroke="#fbf4eb" stroke-miterlimit="10" stroke-width="2"/><path d="M846.458,1195.617l-.461-.75-.214-.332L845,1193.27l-1.136,1.265-.289.332q-10.044,11.109-20.421,24.286t-20.42,26.945q-10.046,13.761-19.039,27.523-9.017,13.761-15.932,26.248a154.334,154.334,0,0,0-9.856,20.707,114.3,114.3,0,0,0-4.018,12.55c-.4,1.619-.729,3.173-1.007,4.673a24.379,24.379,0,0,0-.161,8.371c0,.021.011.032.011.053.578,5.37,3.835,12.336,16.724,13.269.343.032.7.043,1.072.064h.074c.654.022,1.286.022,1.908-.011.01.011.021.011.042,0a23.662,23.662,0,0,0,7.329-1.286,24.669,24.669,0,0,0,7.275-4.04,30.74,30.74,0,0,0,5.71-6.249,86.578,86.578,0,0,0,5.014-8.092q4.146-6.237,9.353-13.525a57.746,57.746,0,0,1,14.357-13.644q9.177-6.366,23.367-11.1,13.115-4.372,33.063-5.9a5.4,5.4,0,0,1,4.993,2.508l35.624,57.1a6.01,6.01,0,0,0,5.1,2.829h25.756Zm-73.626,161.646c0,.01-.011.01-.021.01h-.14a.314.314,0,0,1-.1-.01c-.418.021-.846.021-1.275.01.278-.01.568-.01.846-.032h.032c1.393-.053,2.658-.128,3.815-.268A24.486,24.486,0,0,1,772.832,1357.263Zm104.5-64.822-1.532.247c-1.179.15-2.947.418-2.947.418s-22.853,2.969-31.231,5.8q-14.159,4.743-23.067,11.222a65.258,65.258,0,0,0-14.324,13.729q-3.135,4.251-5.814,8.15c-1.388,2.029-3.544,5.412-4.728,7.567a48.24,48.24,0,0,1-7.994,10.971c-3.224,3.258-6.985,4.222-13.221,4.437-.9-.086-1.907-.268-2.314-.333a18.528,18.528,0,0,1-2.528-.557,15.116,15.116,0,0,1-4.779-2.208,13.5,13.5,0,0,1-2.721-2.561,10.561,10.561,0,0,1-1.789-3.066,11.622,11.622,0,0,1-.589-3.011,23.053,23.053,0,0,1-.118-3.709,36.933,36.933,0,0,1,1.275-7.652,110.446,110.446,0,0,1,4.1-12.326,155.3,155.3,0,0,1,9.8-20.074c3.654-6.473,7.789-13.247,12.343-20.321q6.863-10.595,14.571-21.317t15.749-21.318q6.846-9.084,13.6-17.642a2.641,2.641,0,0,1,2.288-.974l.069.042,45.449,70.641a21.226,21.226,0,0,1,1.264,2.251.033.033,0,0,0,.011.021A1.113,1.113,0,0,1,877.336,1292.441Z" transform="translate(5.714 2.308)" fill="#fbf4eb" stroke="#fbf4eb" stroke-miterlimit="10" stroke-width="2"/><path d="M628.168,1195.617l-.461-.75-.214-.332-.783-1.265-1.135,1.265-.289.332q-10.045,11.109-20.421,24.286T584.444,1246.1q-10.044,13.761-19.039,27.523-9.015,13.761-15.931,26.248a154.348,154.348,0,0,0-9.857,20.707,114.515,114.515,0,0,0-4.018,12.55c-.4,1.619-.728,3.173-1.007,4.673a24.4,24.4,0,0,0-.161,8.371c0,.021.011.032.011.053.579,5.37,3.836,12.336,16.725,13.269.342.032.7.043,1.071.064h.075c.654.022,1.286.022,1.907-.011.011.011.022.011.043,0a23.655,23.655,0,0,0,7.328-1.286,24.644,24.644,0,0,0,7.275-4.04,30.715,30.715,0,0,0,5.711-6.249,86.789,86.789,0,0,0,5.014-8.092q4.146-6.237,9.353-13.525a57.746,57.746,0,0,1,14.357-13.644q9.175-6.366,23.367-11.1,13.113-4.372,33.063-5.9a5.405,5.405,0,0,1,4.993,2.508l35.623,57.1a6.011,6.011,0,0,0,5.1,2.829H731.2Zm-73.626,161.646c0,.01-.011.01-.022.01h-.139a.324.324,0,0,1-.1-.01c-.417.021-.846.021-1.275.01.279-.01.568-.01.847-.032h.032c1.393-.053,2.657-.128,3.814-.268A24.471,24.471,0,0,1,554.542,1357.263Zm104.5-64.822-1.532.247c-1.178.15-2.946.418-2.946.418s-22.853,2.969-31.231,5.8q-14.159,4.743-23.067,11.222a65.264,65.264,0,0,0-14.325,13.729q-3.133,4.251-5.814,8.15c-1.388,2.029-3.544,5.412-4.727,7.567a48.3,48.3,0,0,1-7.994,10.971c-3.225,3.258-6.986,4.222-13.221,4.437-.9-.086-1.907-.268-2.314-.333a18.566,18.566,0,0,1-2.529-.557,15.112,15.112,0,0,1-4.778-2.208,13.47,13.47,0,0,1-2.721-2.561,10.582,10.582,0,0,1-1.79-3.066,11.622,11.622,0,0,1-.589-3.011,23.177,23.177,0,0,1-.118-3.709,37.005,37.005,0,0,1,1.275-7.652,110.261,110.261,0,0,1,4.1-12.326,155.174,155.174,0,0,1,9.8-20.074c3.653-6.473,7.789-13.247,12.342-20.321q6.862-10.595,14.571-21.317t15.75-21.318q6.846-9.084,13.6-17.642a2.639,2.639,0,0,1,2.288-.974l.069.042,45.448,70.641a21.051,21.051,0,0,1,1.264,2.251.033.033,0,0,0,.011.021A1.112,1.112,0,0,1,659.045,1292.441Z" transform="translate(5.714 2.308)" fill="#fbf4eb" stroke="#fbf4eb" stroke-miterlimit="10" stroke-width="2"/><path d="M1283.768,1195.617l-.471-.75-.2-.332-.782-1.265-1.146,1.265-.279.332q-10.06,11.109-20.431,24.286-10.366,13.2-20.421,26.956-10.028,13.761-19.028,27.512t-15.931,26.248a155.148,155.148,0,0,0-9.868,20.707,111.984,111.984,0,0,0-4.007,12.55c-.407,1.629-.739,3.173-1.018,4.673a24.632,24.632,0,0,0-.16,8.371c0,.021.021.032.021.053.568,5.37,3.835,12.336,16.714,13.269.353.032.707.053,1.071.075h.086c.653.011,1.285.011,1.907-.011a.02.02,0,0,0,.032,0,23.915,23.915,0,0,0,7.328-1.3,24.277,24.277,0,0,0,7.275-4.04,30.44,30.44,0,0,0,5.721-6.249,85.143,85.143,0,0,0,5-8.092q4.162-6.237,9.364-13.515a57.516,57.516,0,0,1,14.346-13.654q9.175-6.366,23.367-11.1,13.129-4.372,33.063-5.9a5.392,5.392,0,0,1,4.992,2.508l35.635,57.1a6.034,6.034,0,0,0,5.12,2.84h25.725Zm28.853,98.593q-19.188,1.591-32.1,5.895-14.527,4.854-23.7,11.446a66.991,66.991,0,0,0-14.71,13.987q-3.665,4.9-6.729,9.389c-1.425,2.1-2.785,4.233-4.007,6.452a50.2,50.2,0,0,1-8.3,11.339c-3.461,3.462-7.532,4.373-14.475,4.555a26.64,26.64,0,0,1-3.353-.386,22.406,22.406,0,0,1-2.593-.589,15.319,15.319,0,0,1-4.907-2.251,14.1,14.1,0,0,1-2.807-2.636,10.408,10.408,0,0,1-1.853-3.13,12.2,12.2,0,0,1-.632-3.087,24.469,24.469,0,0,1-.151-3.815,38,38,0,0,1,1.243-7.824,110.929,110.929,0,0,1,4.093-12.636,158.538,158.538,0,0,1,9.857-20.579q5.529-9.951,12.46-20.824t14.71-21.854q7.8-10.98,15.932-21.843,6.927-9.307,13.757-18.07a2.682,2.682,0,0,1,4.382.2l46.134,71.713A2.955,2.955,0,0,1,1312.621,1294.21Z" transform="translate(5.714 2.308)" fill="#fbf4eb" stroke="#fbf4eb" stroke-miterlimit="10" stroke-width="2"/><path d="M1630.621,1215.091a20.5,20.5,0,0,0-1.479-4.5,26.535,26.535,0,0,0-8.657-10.193c-4.028-3.011-9.4-5.337-16.092-7.052a65.318,65.318,0,0,0-20.763-2.186,67.012,67.012,0,0,0-19.735,4.04,59.028,59.028,0,0,0-6.975,3.1,55.967,55.967,0,0,0-5.925,3.183c-.011,0-.011.021-.021.021a57.887,57.887,0,0,0-6.2,4.352,55.48,55.48,0,0,0-9.978,10.478l-.071.106q-8.383,13.448-16.736,26.906c-1.607,2.605-3.225,5.188-4.832,7.781l-.364.579-.482-.782-.011-.011-1.768-2.84-1.446-2.337-33.792-54.457-.01-.01h-28.321a.419.419,0,0,0-.356.641l51.722,83.065.161.257-35.313,56.429-.043-.075L1374.9,1191.276a.01.01,0,0,0-.011-.01h-29.343a.419.419,0,0,0-.354.644l86.46,136.575,16.778,26.73,1.425,2.273,1.72,2.732a.42.42,0,0,0,.712,0l14.163-22.869c.022.011.022.021.033.043l10.6-17.031,24.6-39.623.01.032.022.021,47.354,75.657a.419.419,0,0,0,.711,0l13.99-22.347.493-.782.589-.922,61.005-96.953a33.2,33.2,0,0,0,3.6-7.009c.054-.172.129-.332.171-.515a27.63,27.63,0,0,0,1.254-5.187,23.866,23.866,0,0,0,.193-3.88v-.01A19.924,19.924,0,0,0,1630.621,1215.091Zm-8.518,9.057a24.106,24.106,0,0,1-1.06,4.533c-.043.161-.1.3-.14.451a29.4,29.4,0,0,1-3.064,6.152l-51.866,84.949-.493.8-2.786,4.588a2.431,2.431,0,0,1-4.156.021l-37.981-61.241a13.3,13.3,0,0,1,0-14.008l.857-1.383,1.114-1.79c2.089-3.483,4.179-6.816,6.278-10.128l.193-.311c3.778-5.974,7.535-11.819,11.355-18.135l.163-.248a48.188,48.188,0,0,1,8.389-9.054,50.517,50.517,0,0,1,5.271-3.805c.011,0,.011-.022.021-.022a46.841,46.841,0,0,1,5.025-2.786,49.82,49.82,0,0,1,5.946-2.712,55.312,55.312,0,0,1,16.768-3.537,53.683,53.683,0,0,1,17.656,1.908,38.372,38.372,0,0,1,13.682,6.184,23.1,23.1,0,0,1,7.36,8.917,19.64,19.64,0,0,1,1.64,7.246A20.4,20.4,0,0,1,1622.1,1224.148Z" transform="translate(5.714 2.308)" fill="#fbf4eb" stroke="#fbf4eb" stroke-miterlimit="10" stroke-width="2"/><path d="M1835.6,1194.641a24.4,24.4,0,0,0-7.264,1.736,68.457,68.457,0,0,0-7.448,3.473,36.869,36.869,0,0,0-6.229,4.162,18.69,18.69,0,0,0-3.632,3.817l-31.4,40.5-.9,1.149-18.132,23.39a43.429,43.429,0,0,0-9.107,26.611v54.768a3.908,3.908,0,0,1-3.908,3.907h-23.436v-63.388a13.913,13.913,0,0,0-3.524-9.255l-80.93-90.865h26.086a11.279,11.279,0,0,1,8.426,3.781l49.942,56.122,16.725,18.566a7.887,7.887,0,0,0,12.106-.464l54.217-70.338a2.805,2.805,0,0,0-.3-3.831l-.022-.019a14.656,14.656,0,0,0-5.023-2.656,26.892,26.892,0,0,0-5.367-1.161H1835.6Z" transform="translate(5.714 2.308)" fill="#fbf4eb" stroke="#fbf4eb" stroke-miterlimit="10" stroke-width="2"/></svg>